<svg fill="#31AA40" height="64px" width="64px" version="1.1" id="Layer_1" xmlns="http://www.w3.org/2000/svg" xmlns:xlink="http://www.w3.org/1999/xlink" viewBox="0 0 512.001 512.001" xml:space="preserve" stroke="#31AA40" stroke-width="0.0051200099999999995"><g id="SVGRepo_bgCarrier" stroke-width="0"></g><g id="SVGRepo_tracerCarrier" stroke-linecap="round" stroke-linejoin="round"></g><g id="SVGRepo_iconCarrier"> <g> <g> <path d="M428.839,25.711c-25.693,0-48.703,11.714-63.97,30.079c-15.267-18.365-38.277-30.079-63.97-30.079 c-25.693,0-48.703,11.714-63.97,30.079c-15.267-18.365-38.277-30.079-63.97-30.079c-45.856,0-83.161,37.306-83.161,83.161v108.881 c-8.198,17.359-12.794,36.741-12.794,57.177c0,15.82,2.757,31.006,7.803,45.114l-67.97,67.97 c-22.447,22.446-22.448,58.973,0,81.42c19.617,19.617,56.258,25.162,81.42,0l55.668-55.668 c2.189,33.305,29.965,59.735,63.814,59.735c35.273,0,63.97-28.697,63.97-63.97v-20.217c11.745-7.252,22.299-16.256,31.284-26.653 c4.326,3.522,7.098,8.883,7.098,14.885v31.985c0,35.273,28.697,63.97,63.97,63.97s63.97-28.697,63.97-63.97v-38.382 c0-42.22,63.97-74.845,63.97-134.338v-127.94C512,63.016,474.695,25.711,428.839,25.711z M71.116,442.294 c-7.484,7.485-19.659,7.482-27.139,0.001c-7.483-7.483-7.483-19.658-0.001-27.14l59.815-59.816 c7.708,10.285,16.856,19.433,27.14,27.14L71.116,442.294z M217.737,435.121c-14.979,0-26.174-12.154-25.588-27.23 c6.27,0.901,12.675,1.377,19.191,1.377c11.019,0,21.729-1.343,31.985-3.859C245.059,418.728,236.502,435.121,217.737,435.121z M211.34,370.886c-52.91,0-95.955-43.046-95.955-95.955s43.046-95.955,95.955-95.955s95.955,43.046,95.955,95.955 C307.295,327.84,264.251,370.886,211.34,370.886z M473.618,236.813c0,40.301-63.97,77.404-63.97,134.338v38.382 c0,14.109-11.48,25.588-25.588,25.588s-25.588-11.479-25.588-25.588v-31.985c0-19.549-9.802-36.841-24.744-47.247 c7.673-16.892,11.95-35.64,11.95-55.37c0-74.074-60.264-134.338-134.338-134.338c-31.375,0-60.27,10.815-83.161,28.909v-60.63 c0-24.691,20.088-44.779,44.779-44.779c24.691,0,44.779,20.088,44.779,44.779h38.382c0-24.691,20.088-44.779,44.779-44.779 s44.779,20.088,44.779,44.779h38.382c0-24.691,20.088-44.779,44.779-44.779c24.691,0,44.779,20.088,44.779,44.779V236.813z"></path> </g> </g> </g></svg>